<svg xmlns="http://www.w3.org/2000/svg"><g data-name="Group 6"><path d="M20 33H4a4 4 0 01-4-4V16.771a3.972 3.972 0 011.172-2.83l3.77-3.771A3.977 3.977 0 017.77 9h8.459a3.965 3.965 0 012.827 1.171l3.772 3.771A3.973 3.973 0 0124 16.771V29a4 4 0 01-4 4zM2.667 17v12A1.335 1.335 0 004 30.331h16A1.335 1.335 0 0021.332 29V17H2.667zm5.1-5.333a1.352 1.352 0 00-.943.39l-2.272 2.275h14.9l-2.28-2.276a1.352 1.352 0 00-.943-.39zM12 26.33A5.338 5.338 0 016.666 21a1.333 1.333 0 112.667 0 2.667 2.667 0 005.333 0 1.333 1.333 0 112.667 0A5.338 5.338 0 0112 26.33z" fill="#001f40" data-name="Icons / Shopping / Bag"/><g data-name="Ellipse 11" transform="translate(15)" fill="#fb8d9e" stroke="#d7d7d7" stroke-width="3"><circle cx="9" cy="9" r="9" stroke="none"/><circle cx="9" cy="9" r="7.5" fill="none"/></g></g></svg>