<svg xmlns="http://www.w3.org/2000/svg" viewBox="0 0 191.865 547.797">
  <g id="Group_252" data-name="Group 252" transform="translate(0)">
    <g id="Group_171" data-name="Group 171" transform="translate(10.398 328.233)">
      <g id="Group_159" data-name="Group 159" transform="translate(0)">
        <g id="Group_151" data-name="Group 151">
          <path id="Path_165" data-name="Path 165" d="M631.358,227.521C641.7,244.845,654.1,260.835,671.1,272.068c17.335,11.447,38.831,15.813,57.324,25.07,1.517.76.633,3.274-.9,2.506-19.839-9.93-42.073-14.911-60.706-27.218-16.188-10.692-28.065-27.363-37.865-43.772-.878-1.475,1.538-2.593,2.409-1.134Z" transform="translate(-628.76 -226.838)" fill="#e1eeec"/>
        </g>
        <path id="Path_166" data-name="Path 166" d="M656.779,241.962c4.464,5.77,17.631,40.25.886,29.761-9.774-5.9-8.176-21.084-2.319-29.088" transform="translate(-623.198 -202.064)" fill="#e1eeec"/>
        <path id="Path_167" data-name="Path 167" d="M637.507,259.2c6.994-.364,14.534-1.857,20.079-5.846,4.989-3.978,10.2-12.719.668-13.721-8.123-.736-20.575,10.893-23,18.478" transform="translate(-580.262 -205.937)" fill="#e1eeec"/>
        <path id="Path_168" data-name="Path 168" d="M650.244,239.6c5.772,2.971,12.091,5.245,18.662,4.337,4.8-.947,11.246-3.978,5.516-8.719-6.593-5.646-17.565,1.707-24.158,3.5" transform="translate(-632.904 -216.549)" fill="#e1eeec"/>
        <g id="Group_152" data-name="Group 152" transform="translate(81.537 57.145)">
          <path id="Path_169" data-name="Path 169" d="M623.642,255.582c4.168,7.648,23.43,27.563,31.835,16.04,12.853-17.618-20.562-26.572-30.7-14.869-1.113,1.285-3.319-.214-2.2-1.509,11.014-12.716,42.139-6.97,37.158,13.178-5.527,22.358-33-1.591-38.509-11.708-.823-1.509,1.591-2.633,2.408-1.132Z" transform="translate(-621.065 -248.499)" fill="#e1eeec"/>
        </g>
        <g id="Group_153" data-name="Group 153" transform="translate(28.381 22.033)">
          <path id="Path_170" data-name="Path 170" d="M657.608,235.931a1.333,1.333,0,0,1-2.411,1.134,1.333,1.333,0,0,1,2.411-1.134Z" transform="translate(-655.06 -235.19)" fill="#e1eeec"/>
        </g>
        <g id="Group_154" data-name="Group 154" transform="translate(35.647 21.673)">
          <path id="Path_171" data-name="Path 171" d="M654.854,235.8a1.333,1.333,0,0,1-2.411,1.134,1.333,1.333,0,0,1,2.411-1.134Z" transform="translate(-652.306 -235.054)" fill="#e1eeec"/>
        </g>
        <g id="Group_155" data-name="Group 155" transform="translate(31.584 51.141)">
          <path id="Path_172" data-name="Path 172" d="M656.392,246.966a1.332,1.332,0,0,1-2.409,1.134,1.332,1.332,0,0,1,2.409-1.134Z" transform="translate(-653.847 -246.224)" fill="#e1eeec"/>
        </g>
        <g id="Group_156" data-name="Group 156" transform="translate(34.219 59.525)">
          <path id="Path_173" data-name="Path 173" d="M655.394,250.144a1.331,1.331,0,0,1-2.409,1.132,1.331,1.331,0,0,1,2.409-1.132Z" transform="translate(-652.848 -249.402)" fill="#e1eeec"/>
        </g>
        <g id="Group_157" data-name="Group 157" transform="translate(72.741 40.082)">
          <path id="Path_174" data-name="Path 174" d="M640.792,242.774a1.332,1.332,0,0,1-2.409,1.134,1.332,1.332,0,0,1,2.409-1.134Z" transform="translate(-638.246 -242.032)" fill="#e1eeec"/>
        </g>
        <g id="Group_158" data-name="Group 158" transform="translate(65.539 45.221)">
          <path id="Path_175" data-name="Path 175" d="M643.522,244.722a1.332,1.332,0,0,1-2.408,1.134,1.332,1.332,0,0,1,2.408-1.134Z" transform="translate(-640.976 -243.98)" fill="#e1eeec"/>
        </g>
      </g>
      <g id="Group_170" data-name="Group 170" transform="translate(4.342 91.094)">
        <g id="Group_160" data-name="Group 160" transform="translate(0)">
          <path id="Path_176" data-name="Path 176" d="M606.505,261.719c11.064,9.321,17.591,22.369,27.376,32.855,11.579,12.41,29.062,19.768,44.487,25.812a218.733,218.733,0,0,0,45.023,11.985c13.46,2.171,27.885.567,41.047,3.509,1.736.391.871,3.008-.852,2.622-7.118-1.591-15.037-.857-22.324-1.345a231.715,231.715,0,0,1-25.11-3.234,222.837,222.837,0,0,1-42.1-12.273c-14.246-5.585-27.511-12.779-39.34-22.546-12.1-9.993-18.177-25.361-30.238-35.525-1.359-1.145.7-2.986,2.034-1.86Z" transform="translate(-604.026 -261.368)" fill="#e1eeec"/>
        </g>
        <g id="Group_161" data-name="Group 161" transform="translate(125.51 59.844)">
          <path id="Path_177" data-name="Path 177" d="M600.459,296.945a65.331,65.331,0,0,0,21.6,11.386c10.624,3.176,33.28-2.989,20.57-17.225-10.969-12.281-30.265,2.139-40.266,8.577-1.5.96-2.733-1.5-1.253-2.456,12.038-7.746,41.807-25.115,47.682-.367,2.118,8.917-7.809,14.2-14.9,15.291-12.341,1.907-25.611-5.633-34.921-12.885-1.393-1.084.087-3.411,1.491-2.322Z" transform="translate(-598.409 -284.052)" fill="#e1eeec"/>
        </g>
        <g id="Group_162" data-name="Group 162" transform="translate(56.625 42.503)">
          <path id="Path_178" data-name="Path 178" d="M621.74,287c9.848,1.235,19.219,2.635,29.146,1.066,10.217-1.617,19.863-7.107,29.592-10.5,1.672-.586,2.213,2.121.557,2.7-9.935,3.464-19.332,8.046-29.592,10.5-9.748,2.332-20.132.206-29.859-1.013-1.754-.219-1.612-2.973.156-2.752Z" transform="translate(-620.339 -277.479)" fill="#e1eeec"/>
        </g>
        <g id="Group_163" data-name="Group 163" transform="translate(87.247 29.057)">
          <path id="Path_179" data-name="Path 179" d="M616.514,296.74c8.624,1.517,17.04,2.49,25.7.525,6.741-1.53,18.858-12.777,13.283-20.369-4.319-5.88-16.718,1.96-20.87,4.5-6.537,4-10.189,10.874-16,15.71-1.364,1.134-3.226-.9-1.86-2.034,4.994-4.16,8.244-9.925,13.375-13.916a53.96,53.96,0,0,1,12.492-6.973c6.255-2.6,13.695-3.25,16.72,3.989,2.794,6.693-4.912,14.46-9.4,18.156-9,7.408-23.142,5-33.6,3.16-1.728-.3-1.593-3.058.158-2.752Z" transform="translate(-615.127 -272.382)" fill="#e1eeec"/>
        </g>
        <g id="Group_164" data-name="Group 164" transform="translate(54.825 51.052)">
          <path id="Path_180" data-name="Path 180" d="M627.314,280.85c11.146,5.142,20.383,12.4,28.735,21.337a106.169,106.169,0,0,1,12.191,15.576c3.894,6.139,4.459,14.03,6.878,20.725.593,1.649-1.855,2.923-2.456,1.253a97.964,97.964,0,0,1-3.15-10.824c-2.113-8.9-7.287-15.533-13.217-22.261-8.529-9.669-18.053-17.752-29.83-23.184-1.6-.736-.765-3.366.85-2.622Z" transform="translate(-625.606 -280.719)" fill="#e1eeec"/>
        </g>
        <g id="Group_165" data-name="Group 165" transform="translate(85.917 76.258)">
          <path id="Path_181" data-name="Path 181" d="M624.792,290.393a43.348,43.348,0,0,1,23.894,26.1c2.356,7.073,3.791,17.968-1.741,23.912-5.722,6.152-14.444-2.852-17.388-7.181-8.173-12.019-8.975-26.339-7.289-40.306.211-1.754,2.968-1.612,2.754.158-1.575,13.043-1.079,43.205,16.86,46.2,9.268,1.546,5.142-18.5,4.105-22.232-2.968-10.674-12.149-19.733-22.047-24.028-1.615-.7-.781-3.332.852-2.625Z" transform="translate(-621.542 -290.274)" fill="#e1eeec"/>
        </g>
        <g id="Group_166" data-name="Group 166" transform="translate(30.933 36.19)">
          <path id="Path_182" data-name="Path 182" d="M662.2,343.586c1.06-11.721-.411-23.073-3.227-34.446-2.828-11.426-9.088-21.361-12.684-32.484-.549-1.686,2.156-2.229,2.7-.554,4,12.352,10.386,23.187,13.528,35.892a96.086,96.086,0,0,1,2.438,31.747c-.161,1.765-2.915,1.62-2.754-.156Z" transform="translate(-646.215 -275.086)" fill="#e1eeec"/>
        </g>
        <g id="Group_167" data-name="Group 167" transform="translate(30.803 58.455)">
          <path id="Path_183" data-name="Path 183" d="M654.421,283.894c10.634,9.379,18.586,22.677,17.277,37.314-.66,7.353-3.24,18.884-11.03,21.87-8.49,3.253-15.164-11.27-17.032-16.958-4.385-13.37,3.24-28.265,8.286-40.253.686-1.628,3.311-.791,2.622.849-3.448,8.189-7.1,16.291-8.751,25.076a33.084,33.084,0,0,0,.543,13.771c1.187,5.065,7.308,17.269,14.3,14.592,6.276-2.406,7.962-15.2,8.461-20.765,1.169-13.08-7.421-25.445-16.707-33.636-1.335-1.177.717-3.021,2.034-1.86Z" transform="translate(-642.327 -283.525)" fill="#e1eeec"/>
        </g>
        <g id="Group_168" data-name="Group 168" transform="translate(16.246 18.178)">
          <path id="Path_184" data-name="Path 184" d="M639.846,268.97c17.684,7.263,34.09,4.458,51.869-.652,1.707-.493,2.256,2.211.557,2.7-18.34,5.274-35.135,8.023-53.278.575-1.633-.67-.8-3.3.852-2.622Z" transform="translate(-638.111 -268.258)" fill="#e1eeec"/>
        </g>
        <g id="Group_169" data-name="Group 169" transform="translate(39.183 7.278)">
          <path id="Path_185" data-name="Path 185" d="M634.438,281.2c10.843,8.139,40.208,14.3,42.722-5.625,1.538-12.191-17.881-8.392-23.569-6.368-6.624,2.359-13.259,6.614-17.1,12.6a1.379,1.379,0,0,1-2.322-1.488c5.324-8.308,15-13.125,24.31-15.446,6.5-1.62,18.858-1.169,20.926,7.21,1.9,7.69-4.137,16.686-11.893,18.464-11.4,2.614-25.16.032-34.565-7.028-1.417-1.063.066-3.39,1.488-2.322Z" transform="translate(-632.377 -264.127)" fill="#e1eeec"/>
        </g>
      </g>
    </g>
    <g id="Group_216" data-name="Group 216" transform="translate(0 0)">
      <g id="Group_193" data-name="Group 193" transform="translate(0 178.61)">
        <g id="Group_192" data-name="Group 192">
          <g id="Group_181" data-name="Group 181" transform="translate(3.133 64.313)">
            <g id="Group_178" data-name="Group 178" transform="translate(3.906 0.088)">
              <g id="Group_172" data-name="Group 172">
                <path id="Path_186" data-name="Path 186" d="M655.179,197.853c41.292,6.086,58.942,43.289,68.03,79.912,2.137,8.6-15.526,1.314-20.638-.037a136.165,136.165,0,0,1-29.988-12.109c-18.8-10.189-32.906-26.5-37.776-47.479-.48-2.074-3.677-1.269-3.2.8,9.97,42.96,54.929,61.593,94.7,66.787a1.659,1.659,0,0,0,1.638-2.047c-9-40.406-27.147-82.411-72.689-89.125-2.1-.309-2.15,2.992-.076,3.3Z" transform="translate(-631.56 -194.535)" fill="#e1eeec"/>
              </g>
              <g id="Group_173" data-name="Group 173" transform="translate(6.739 11.187)">
                <path id="Path_187" data-name="Path 187" d="M717.868,273.13c-11.632-15.417-27.012-27.033-42.258-38.641-14.23-10.83-25.572-24.87-39.81-35.4-1.715-1.264-3.393,1.575-1.7,2.831,13.072,9.658,23.35,22.767,36.349,32.755,16.137,12.4,32.692,24.366,45.06,40.757,1.277,1.694,3.625-.628,2.359-2.306Z" transform="translate(-633.397 -198.776)" fill="#e1eeec"/>
              </g>
              <g id="Group_174" data-name="Group 174" transform="translate(57.809 55.411)">
                <path id="Path_188" data-name="Path 188" d="M661.957,216.26c-8.125-1.285-16.235-.462-24.414-.454a1.657,1.657,0,0,0-1.686,1.612c.377,6.965,2.464,14.634.15,21.427-.689,2.021,2.485,2.928,3.166.923,2.43-7.136.377-14.964-.021-22.274-.559.536-1.124,1.074-1.686,1.609,7.862-.008,15.753-.913,23.569.324,2.074.327,3.015-2.836.921-3.168Z" transform="translate(-635.855 -215.539)" fill="#e1eeec"/>
              </g>
              <g id="Group_175" data-name="Group 175" transform="translate(73.16 70.237)">
                <path id="Path_189" data-name="Path 189" d="M648.617,221.162c-3.59.2-7.178.158-10.769,0a1.637,1.637,0,0,0-1.622,1.187c-.929,4.506-1.163,9.1-1.8,13.647-.3,2.105,3,2.155,3.3.079.6-4.266.8-8.579,1.672-12.8l-1.622,1.187c3.593.156,7.176.2,10.769,0,2.11-.119,2.2-3.416.079-3.3Z" transform="translate(-634.402 -221.159)" fill="#e1eeec"/>
              </g>
              <g id="Group_176" data-name="Group 176" transform="translate(36.181 36.195)">
                <path id="Path_190" data-name="Path 190" d="M676.54,208.255c-10.988.084-21.319,3.714-32.112,5.284a1.621,1.621,0,0,0-1.248,1.559A74.535,74.535,0,0,1,640,240.728c-.617,2.039,2.551,2.955,3.168.923a84.3,84.3,0,0,0,3.44-21.878c.164-4.952,5.891-4.3,10.012-5.247,6.606-1.522,13.014-2.92,19.836-2.973,2.126-.016,2.205-3.314.079-3.3Z" transform="translate(-639.925 -208.255)" fill="#e1eeec"/>
              </g>
              <g id="Group_177" data-name="Group 177" transform="translate(18.323 16.766)">
                <path id="Path_191" data-name="Path 191" d="M684.474,200.974c-9.8,3.055-20.514,4.271-29.315,9.9-8.476,5.419-7.659,20.928-9.394,29.568-.414,2.074,2.749,3.007,3.168.923,1.992-9.917,1.037-24.155,11.072-29.5,7.727-4.115,16.984-5.113,25.271-7.7,2.018-.631,1.229-3.833-.8-3.2Z" transform="translate(-645.727 -200.89)" fill="#e1eeec"/>
              </g>
            </g>
            <g id="Group_179" data-name="Group 179" transform="translate(0 2.312)">
              <path id="Path_192" data-name="Path 192" d="M666.3,200.939c.306,8.5,4.849,20.649,5.073,21.25a1.87,1.87,0,0,0,3.5-1.319c-1.707-4.53-5.872-17.525-4.638-23.226a1.868,1.868,0,1,0-3.651-.791A16.6,16.6,0,0,0,666.3,200.939Z" transform="translate(-666.287 -195.378)" fill="#e1eeec"/>
            </g>
            <g id="Group_180" data-name="Group 180" transform="translate(0.256)">
              <path id="Path_193" data-name="Path 193" d="M657.2,198.75a1.689,1.689,0,0,0,.024.227,1.868,1.868,0,0,0,2.137,1.554c.206-.032,20.522-3.211,28.1-2.039a1.869,1.869,0,1,0,.573-3.693c-8.16-1.261-28.4,1.9-29.257,2.039A1.874,1.874,0,0,0,657.2,198.75Z" transform="translate(-657.203 -194.502)" fill="#e1eeec"/>
            </g>
          </g>
          <g id="Group_191" data-name="Group 191">
            <g id="Group_188" data-name="Group 188" transform="translate(16.33)">
              <g id="Group_182" data-name="Group 182">
                <path id="Path_194" data-name="Path 194" d="M613.793,199.268c36.277-36.773,86.328-27.181,129.536-9.468,10.152,4.158-10.041,16.459-15.132,20.575a168.513,168.513,0,0,1-34.019,21.081c-23.92,11.312-50.521,13.473-75.029,2.986-2.422-1.037-3.957,2.746-1.541,3.778,50.178,21.467,101.666-9.79,135.936-45.69a2.055,2.055,0,0,0-.847-3.134c-46.917-20.572-102.128-33.172-142.139,7.384-1.847,1.873,1.414,4.335,3.234,2.488Z" transform="translate(-610.01 -170.124)" fill="#e1eeec"/>
              </g>
              <g id="Group_183" data-name="Group 183" transform="translate(0.104 21.8)">
                <path id="Path_195" data-name="Path 195" d="M747.638,178.387c-23.9.338-46.745,7.2-69.484,13.93-21.219,6.284-43.53,7.339-64.453,13.853-2.514.786-.907,4.54,1.583,3.767,19.2-5.983,39.807-6.661,59.285-12.331,24.187-7.039,48.239-14.816,73.647-15.175,2.625-.04,2.024-4.079-.578-4.044Z" transform="translate(-612.437 -178.387)" fill="#e1eeec"/>
              </g>
              <g id="Group_184" data-name="Group 184" transform="translate(81.888 7.029)">
                <path id="Path_196" data-name="Path 196" d="M642.442,173.337c-7.223,7.176-12.336,15.871-18.306,24.042a2.051,2.051,0,0,0,.372,2.862c7.231,4.717,16.414,8.244,21.5,15.523,1.514,2.163,4.741-.34,3.237-2.488-5.347-7.643-14.663-11.32-22.253-16.269.127.952.248,1.91.375,2.862,5.741-7.856,10.611-16.4,17.56-23.292,1.844-1.831-.625-5.086-2.488-3.24Z" transform="translate(-623.724 -172.788)" fill="#e1eeec"/>
              </g>
              <g id="Group_185" data-name="Group 185" transform="translate(108.924 13.586)">
                <path id="Path_197" data-name="Path 197" d="M625.578,176.13c-2.422,3.733-5.092,7.279-7.872,10.751a2.031,2.031,0,0,0,0,2.488c3.82,4.224,8.234,7.817,12.307,11.782,1.884,1.836,4.35-1.422,2.488-3.234-3.817-3.717-7.975-7.076-11.558-11.035v2.49c2.781-3.474,5.448-7.017,7.872-10.753,1.425-2.195-1.8-4.693-3.234-2.488Z" transform="translate(-617.279 -175.273)" fill="#e1eeec"/>
              </g>
              <g id="Group_186" data-name="Group 186" transform="translate(54.194 3.279)">
                <path id="Path_198" data-name="Path 198" d="M651.909,172.183c-7.951,11.03-11.885,24-18.211,35.921a2.013,2.013,0,0,0,.646,2.388,92.228,92.228,0,0,1,23.263,21.915c1.586,2.111,4.815-.385,3.237-2.488a104.247,104.247,0,0,0-19.322-19.435c-4.828-3.786.016-9.025,2.081-13.834,3.311-7.706,6.6-15.127,11.539-21.978,1.538-2.134-1.7-4.622-3.234-2.488Z" transform="translate(-633.531 -171.367)" fill="#e1eeec"/>
              </g>
              <g id="Group_187" data-name="Group 187" transform="translate(30.175 4.38)">
                <path id="Path_199" data-name="Path 199" d="M654.711,173.048c-4.115,12.019-10.735,23.606-11.553,36.507-.794,12.428,15.293,22.955,22.649,31.006,1.765,1.931,5.012-.546,3.24-2.488-8.447-9.241-23.358-18.7-21.356-32.629,1.543-10.724,7.321-20.7,10.8-30.856.847-2.477-2.926-4.034-3.781-1.541Z" transform="translate(-643.13 -171.784)" fill="#e1eeec"/>
              </g>
            </g>
            <g id="Group_189" data-name="Group 189" transform="translate(0.001 52.751)">
              <path id="Path_200" data-name="Path 200" d="M662.98,197.242c8.714,5.912,24.163,10.262,24.928,10.476a2.314,2.314,0,0,0,1.243-4.458c-5.772-1.609-21.794-6.954-26.579-12.357a2.313,2.313,0,1,0-3.461,3.068A20.826,20.826,0,0,0,662.98,197.242Z" transform="translate(-658.528 -190.119)" fill="#e1eeec"/>
            </g>
            <g id="Group_190" data-name="Group 190" transform="translate(0 22.629)">
              <path id="Path_201" data-name="Path 201" d="M662.857,213.055a2.7,2.7,0,0,0,.243.142,2.312,2.312,0,0,0,3.116-1c.116-.227,11.8-22.833,18.517-29.547a2.313,2.313,0,1,0-3.269-3.274c-7.226,7.223-18.871,29.748-19.361,30.7A2.315,2.315,0,0,0,662.857,213.055Z" transform="translate(-661.844 -178.701)" fill="#e1eeec"/>
            </g>
          </g>
        </g>
      </g>
      <g id="Group_215" data-name="Group 215" transform="translate(6.467)">
        <g id="Group_214" data-name="Group 214">
          <g id="Group_203" data-name="Group 203">
            <g id="Group_200" data-name="Group 200">
              <g id="Group_194" data-name="Group 194">
                <path id="Path_202" data-name="Path 202" d="M673.178,202.7c32.721-20.116,34.161-57.981,28.576-92.251-1.311-8.052-13.608,4.517-17.443,7.513a125.148,125.148,0,0,0-20.976,21.11c-12.2,15.431-18.227,34.338-14.742,53.85.346,1.928-2.651,2.406-2.994.483-7.139-39.95,24.136-72.008,55.889-90.813a1.527,1.527,0,0,1,2.129,1.14c7.036,37.435,6.907,79.543-29.181,101.727-1.665,1.024-2.9-1.752-1.258-2.76Z" transform="translate(-644.571 -102.421)" fill="#e1eeec"/>
              </g>
              <g id="Group_195" data-name="Group 195" transform="translate(10.707 4.153)">
                <path id="Path_203" data-name="Path 203" d="M692.357,106.071c-4.25,17.256-13.049,32.658-21.739,48-8.11,14.317-12.616,30.3-20.841,44.368-.992,1.691-3.44-.1-2.461-1.778,7.553-12.909,11.5-27.722,18.871-40.881,9.154-16.341,18.821-32.46,23.34-50.806.467-1.894,3.293-.781,2.831,1.095Z" transform="translate(-647.089 -103.995)" fill="#e1eeec"/>
              </g>
              <g id="Group_196" data-name="Group 196" transform="translate(29.938 21.609)">
                <path id="Path_204" data-name="Path 204" d="M675.694,122.753c-6.411,4.031-13.565,6.276-20.488,9.233a1.526,1.526,0,0,1-2.01-.752c-2.2-6.028-3.219-13.27-7.64-18.179-1.314-1.459,1.042-3.377,2.345-1.928,4.641,5.155,5.743,12.521,8.057,18.85l-2.01-.752c6.651-2.841,13.655-4.936,19.818-8.817,1.633-1.029,3.577,1.309,1.929,2.345Z" transform="translate(-645.169 -110.612)" fill="#e1eeec"/>
              </g>
              <g id="Group_197" data-name="Group 197" transform="translate(40.673 11.117)">
                <path id="Path_205" data-name="Path 205" d="M663.5,116.08c-3.11,1.129-6.126,2.469-9.11,3.9a1.506,1.506,0,0,1-1.8-.417c-2.419-3.474-4.282-7.276-6.471-10.89-1.016-1.673,1.76-2.912,2.76-1.261,2.053,3.39,3.788,6.965,6.057,10.223l-1.8-.414a98.6,98.6,0,0,1,9.11-3.9c1.828-.665,3.1,2.092,1.261,2.76Z" transform="translate(-645.896 -106.635)" fill="#e1eeec"/>
              </g>
              <g id="Group_198" data-name="Group 198" transform="translate(15.252 37.95)">
                <path id="Path_206" data-name="Path 206" d="M688.935,133.5c-9.326,3.912-19.377,4.588-29.078,7.17a1.494,1.494,0,0,1-1.62-.865,68.66,68.66,0,0,0-11.975-20.527c-1.264-1.5,1.084-3.424,2.345-1.928A77.587,77.587,0,0,1,659.445,134.6c1.934,4.131,6.54,1.5,10.373.81,6.136-1.105,12.064-2.248,17.855-4.675,1.8-.757,3.063,2.005,1.261,2.76Z" transform="translate(-645.9 -116.806)" fill="#e1eeec"/>
              </g>
              <g id="Group_199" data-name="Group 199" transform="translate(4.66 54.817)">
                <path id="Path_207" data-name="Path 207" d="M695.483,145.09c-9.4.968-18.9,3.82-28.384,2.25-9.136-1.509-14.064-14.927-18.665-21.606-1.1-1.6,1.237-3.54,2.345-1.928,5.279,7.666,9.632,20.055,20.058,20.939,8.028.681,16.219-1.833,24.163-2.651,1.936-.2,2.432,2.8.483,3Z" transform="translate(-648.146 -123.199)" fill="#e1eeec"/>
              </g>
            </g>
            <g id="Group_201" data-name="Group 201" transform="translate(0.308 84.86)">
              <path id="Path_208" data-name="Path 208" d="M668.491,156.2c-2.826-7.3-3.385-19.224-3.411-19.813a1.72,1.72,0,0,1,3.437-.153c.2,4.451,1.385,16.953,4.5,21.324a1.72,1.72,0,1,1-2.8,1.994A15.307,15.307,0,0,1,668.491,156.2Z" transform="translate(-665.078 -134.587)" fill="#e1eeec"/>
            </g>
            <g id="Group_202" data-name="Group 202" transform="translate(5.122 98.434)">
              <path id="Path_209" data-name="Path 209" d="M655.72,150.745a1.526,1.526,0,0,1-.063-.2,1.719,1.719,0,0,1,1.245-2.089c.185-.045,18.52-4.722,24.509-8.461a1.721,1.721,0,0,1,1.826,2.918c-6.445,4.023-24.714,8.682-25.487,8.877A1.722,1.722,0,0,1,655.72,150.745Z" transform="translate(-655.604 -139.733)" fill="#e1eeec"/>
            </g>
          </g>
          <g id="Group_213" data-name="Group 213" transform="translate(1.139 93.931)">
            <g id="Group_210" data-name="Group 210" transform="translate(18.918)">
              <g id="Group_204" data-name="Group 204" transform="translate(1.56)">
                <path id="Path_210" data-name="Path 210" d="M602.252,193.111c43.785,39.1,99.862,24.627,147.594,1.435,11.215-5.445-12.571-17.945-18.639-22.248a191.5,191.5,0,0,0-40.1-21.469c-27.941-11.112-58.264-11.65-85.31,2.005-2.672,1.348-4.685-2.831-2.018-4.176,55.37-27.949,116.01,3.8,157.456,42.057,1.15,1.063.488,2.984-.736,3.617-51.734,26.7-113.448,44.957-161.737,1.833-2.229-1.992,1.293-5.02,3.49-3.055Z" transform="translate(-598.05 -138.026)" fill="#e1eeec"/>
              </g>
              <g id="Group_205" data-name="Group 205" transform="translate(0 27.618)">
                <path id="Path_211" data-name="Path 211" d="M756.34,174.846c-27.128,1.332-53.536-4.807-79.807-10.809-24.519-5.6-49.9-5.2-74.1-11.083-2.907-.712-1.353-5.084,1.527-4.385,22.208,5.408,45.627,4.7,68.122,9.724,27.938,6.25,55.776,13.341,84.616,11.924,2.981-.145,2.588,4.48-.361,4.627Z" transform="translate(-600.881 -148.494)" fill="#e1eeec"/>
              </g>
              <g id="Group_206" data-name="Group 206" transform="translate(94.069 23.164)">
                <path id="Path_212" data-name="Path 212" d="M637.406,196.234c-8.708-7.619-15.13-17.116-22.49-25.954a2.328,2.328,0,0,1,.219-3.271c7.862-5.87,18.021-10.529,23.271-19.15,1.562-2.562,5.4.045,3.852,2.588-5.516,9.054-15.818,13.893-24.071,20.053.074-1.09.145-2.184.219-3.274,7.076,8.5,13.212,17.834,21.591,25.157,2.221,1.944-.346,5.812-2.591,3.852Z" transform="translate(-614.351 -146.806)" fill="#e1eeec"/>
              </g>
              <g id="Group_207" data-name="Group 207" transform="translate(125.194 34.21)">
                <path id="Path_213" data-name="Path 213" d="M617.029,180.4c-3.018-4.06-6.3-7.891-9.7-11.629a2.307,2.307,0,0,1-.182-2.823c4.029-5.063,8.78-9.455,13.112-14.246,2.008-2.219,5.036,1.3,3.055,3.49-4.063,4.49-8.537,8.6-12.315,13.344-.061-.939-.121-1.881-.182-2.82a151.324,151.324,0,0,1,9.7,11.629c1.773,2.385-1.707,5.453-3.488,3.055Z" transform="translate(-606.743 -150.993)" fill="#e1eeec"/>
              </g>
              <g id="Group_208" data-name="Group 208" transform="translate(62.098 8.821)">
                <path id="Path_214" data-name="Path 214" d="M649.347,211.1c-9.814-11.938-15.2-26.363-23.237-39.433a2.289,2.289,0,0,1,.559-2.754,104.82,104.82,0,0,0,24.812-26.527c1.646-2.506,5.49.092,3.852,2.591a118.7,118.7,0,0,1-20.52,23.429c-5.2,4.641.665,10.233,3.356,15.541,4.306,8.5,8.574,16.684,14.666,24.1,1.9,2.311-1.591,5.366-3.488,3.055Z" transform="translate(-625.863 -141.37)" fill="#e1eeec"/>
              </g>
              <g id="Group_209" data-name="Group 209" transform="translate(34.664 0.735)">
                <path id="Path_215" data-name="Path 215" d="M652.846,216.58c-5.532-13.336-13.871-26-15.726-40.575-1.791-14.038,15.7-27.131,23.461-36.792,1.863-2.319,5.725.259,3.852,2.588-8.914,11.088-25.15,22.886-21.876,38.541,2.519,12.051,9.788,22.947,14.465,34.22,1.14,2.749-3.029,4.783-4.176,2.018Z" transform="translate(-636.992 -138.304)" fill="#e1eeec"/>
              </g>
            </g>
            <g id="Group_211" data-name="Group 211" transform="translate(0.002 7.539)">
              <path id="Path_216" data-name="Path 216" d="M659.062,154.7c9.455-7.334,26.666-13.375,27.518-13.674A2.63,2.63,0,0,1,688.309,146c-6.429,2.24-24.216,9.452-29.255,15.924a2.629,2.629,0,1,1-4.147-3.232A23.573,23.573,0,0,1,659.062,154.7Z" transform="translate(-654.353 -140.883)" fill="#e1eeec"/>
            </g>
            <g id="Group_212" data-name="Group 212" transform="translate(0 24.332)">
              <path id="Path_217" data-name="Path 217" d="M657.953,147.8a2.139,2.139,0,0,1,.266-.179,2.624,2.624,0,0,1,3.6.9c.15.251,15.027,25.052,23.126,32.183a2.629,2.629,0,0,1-3.472,3.949c-8.716-7.674-23.54-32.386-24.166-33.431A2.628,2.628,0,0,1,657.953,147.8Z" transform="translate(-656.938 -147.249)" fill="#e1eeec"/>
            </g>
          </g>
        </g>
      </g>
    </g>
  </g>
</svg>
