<svg id="Group_226" data-name="Group 226" xmlns="http://www.w3.org/2000/svg" viewBox="0 0 37.099 50.81">
  <g id="Group_221" data-name="Group 221" transform="translate(13.646)">
    <path id="Path_229" data-name="Path 229" d="M436.573,263.543c-2.771-9.343-8.432-20.535-17.333-22.835-3.971-1.027-2.1,4.267-1.289,6.232a20.947,20.947,0,0,0,4.856,6.581c3.9,3.907,8.883,6.478,13.639,8.543.956.416.542,2.231-.424,1.811-6.158-2.674-12.179-6.149-16.812-11.732-2.029-2.447-6.338-9.576-3.076-12.7,2.6-2.494,7.572.969,9.681,2.8,6.016,5.227,9.861,12.586,12.3,20.8a.814.814,0,1,1-1.54.5Z" transform="translate(-414.951 -238.569)" fill="#e8a2a3"/>
  </g>
  <g id="Group_222" data-name="Group 222" transform="translate(0 14.492)">
    <path id="Path_230" data-name="Path 230" d="M448.092,255.48a66.993,66.993,0,0,0-16.384-7.232,32.067,32.067,0,0,0-9.216-1.1,7.244,7.244,0,0,0-4.783,2c-3.8,3.611,4.123,6.556,5.189,6.9,8.267,2.689,19.608,2.727,27.6-.973.96-.444,1.371,1.371.424,1.809-7.129,3.3-15.332,2.958-22.817,2.047-4.387-.533-10.9-1.253-12.659-6.916-1.431-4.6,4.549-6.4,7.041-6.741,8.879-1.225,18.708,4.014,26.407,8.587.92.549.111,2.167-.807,1.622Z" transform="translate(-415.233 -245.09)" fill="#e8a2a3"/>
  </g>
  <g id="Group_223" data-name="Group 223" transform="translate(17.671 23.794)">
    <path id="Path_231" data-name="Path 231" d="M434.255,250.455c-1.065,6.925-2.978,15.286-7.032,20.7-1.976,2.64-7.063,6.676-10.2,4.534-3.658-2.5-2.069-9.021.062-12.137,3.958-5.787,9.825-8.805,14.448-13.681.764-.807,1.9.518,1.129,1.329-2.707,2.856-5.872,5.069-8.81,7.574-3.118,2.66-10.216,9.436-6.641,14.788,2.416,3.614,8.714-3.238,9.963-5.418,3-5.234,4.594-12.032,5.54-18.186.182-1.191,1.72-.685,1.538.5Z" transform="translate(-414.842 -249.275)" fill="#e8a2a3"/>
  </g>
</svg>
