<svg id="Group_148" data-name="Group 148" xmlns="http://www.w3.org/2000/svg" viewBox="0 0 48 48">
  <path id="Path_137" data-name="Path 137" d="M404.1,425.482c0,16.48-7.522,23.226-24,23.226s-24-6.745-24-23.226,7.522-24.774,24-24.774,24,8.294,24,24.774" transform="translate(-356.104 -400.708)" fill="#fb8d9e"/>
  <g id="Group_147" data-name="Group 147" transform="translate(8.481 8.481)">
    <path id="Path_138" data-name="Path 138" d="M373.434,405.318c4.145,0,4.636.014,6.273.089a8.693,8.693,0,0,1,2.882.533,4.792,4.792,0,0,1,1.782,1.165,4.741,4.741,0,0,1,1.165,1.782,8.692,8.692,0,0,1,.533,2.882c.075,1.637.089,2.129.089,6.273s-.014,4.631-.089,6.268a8.665,8.665,0,0,1-.533,2.882,5.156,5.156,0,0,1-2.947,2.947,8.694,8.694,0,0,1-2.882.533c-1.637.075-2.129.089-6.273.089s-4.631-.014-6.268-.089a8.694,8.694,0,0,1-2.882-.533,5.155,5.155,0,0,1-2.947-2.947,8.664,8.664,0,0,1-.533-2.882c-.075-1.637-.089-2.128-.089-6.268s.014-4.636.089-6.273a8.692,8.692,0,0,1,.533-2.882,5.19,5.19,0,0,1,2.947-2.947,8.694,8.694,0,0,1,2.882-.533c1.637-.075,2.128-.089,6.268-.089m0-2.8c-4.215,0-4.739.019-6.395.094a11.384,11.384,0,0,0-3.77.72,7.956,7.956,0,0,0-4.538,4.542,11.351,11.351,0,0,0-.72,3.766c-.075,1.656-.094,2.185-.094,6.4s.019,4.743.094,6.395a11.379,11.379,0,0,0,.72,3.77,7.965,7.965,0,0,0,4.538,4.538,11.38,11.38,0,0,0,3.77.72c1.656.075,2.18.094,6.395.094s4.743-.019,6.4-.094a11.38,11.38,0,0,0,3.77-.72,7.965,7.965,0,0,0,4.538-4.538,11.383,11.383,0,0,0,.72-3.77c.075-1.651.094-2.185.094-6.395s-.019-4.743-.094-6.4a11.355,11.355,0,0,0-.72-3.766,7.956,7.956,0,0,0-4.538-4.542,11.384,11.384,0,0,0-3.77-.72c-1.656-.075-2.18-.094-6.4-.094" transform="translate(-357.917 -402.521)" fill="#fff"/>
    <path id="Path_139" data-name="Path 139" d="M367.5,404.135a7.969,7.969,0,1,0,7.971,7.967,7.97,7.97,0,0,0-7.971-7.967m0,13.14a5.171,5.171,0,1,1,5.174-5.174,5.172,5.172,0,0,1-5.174,5.174" transform="translate(-351.981 -396.585)" fill="#fff"/>
    <path id="Path_140" data-name="Path 140" d="M366.331,405.532a1.862,1.862,0,1,1-1.862-1.862,1.861,1.861,0,0,1,1.862,1.862" transform="translate(-340.668 -398.295)" fill="#fff"/>
  </g>
</svg>
