<svg xmlns="http://www.w3.org/2000/svg" viewBox="0 0 26.954 26.952">
  <g id="Icons_Keypad" data-name="Icons / Keypad" transform="translate(-64.69 -714.223)" style="isolation: isolate">
    <path id="Color" d="M87.6,741.175a4.042,4.042,0,1,1,4.044-4.043A4.047,4.047,0,0,1,87.6,741.175Zm0-5.39a1.347,1.347,0,1,0,1.348,1.347A1.349,1.349,0,0,0,87.6,735.785Zm-9.434,5.39a4.042,4.042,0,1,1,4.043-4.043A4.047,4.047,0,0,1,78.167,741.175Zm0-5.39a1.347,1.347,0,1,0,1.348,1.347A1.349,1.349,0,0,0,78.167,735.785Zm-9.434,5.39a4.042,4.042,0,1,1,4.043-4.043A4.047,4.047,0,0,1,68.733,741.175Zm0-5.39a1.347,1.347,0,1,0,1.347,1.347A1.349,1.349,0,0,0,68.733,735.785ZM87.6,731.743a4.043,4.043,0,1,1,4.044-4.043A4.047,4.047,0,0,1,87.6,731.743Zm0-5.391a1.348,1.348,0,1,0,1.348,1.348A1.349,1.349,0,0,0,87.6,726.352Zm-9.434,5.391A4.043,4.043,0,1,1,82.21,727.7,4.047,4.047,0,0,1,78.167,731.743Zm0-5.391a1.348,1.348,0,1,0,1.348,1.348A1.35,1.35,0,0,0,78.167,726.352Zm-9.434,5.391a4.043,4.043,0,1,1,4.043-4.043A4.047,4.047,0,0,1,68.733,731.743Zm0-5.391A1.348,1.348,0,1,0,70.08,727.7,1.35,1.35,0,0,0,68.733,726.352ZM87.6,722.309a4.043,4.043,0,1,1,4.044-4.044A4.048,4.048,0,0,1,87.6,722.309Zm0-5.39a1.347,1.347,0,1,0,1.348,1.346A1.348,1.348,0,0,0,87.6,716.919Zm-9.434,5.39a4.043,4.043,0,1,1,4.043-4.044A4.048,4.048,0,0,1,78.167,722.309Zm0-5.39a1.347,1.347,0,1,0,1.348,1.346A1.349,1.349,0,0,0,78.167,716.919Zm-9.434,5.39a4.043,4.043,0,1,1,4.043-4.044A4.048,4.048,0,0,1,68.733,722.309Zm0-5.39a1.347,1.347,0,1,0,1.347,1.346A1.349,1.349,0,0,0,68.733,716.919Z" fill="#fff"/>
  </g>
</svg>
