<svg xmlns="http://www.w3.org/2000/svg" viewBox="0 0 200 206">
  <g id="quote-sign" transform="translate(-1.503)" opacity="0.06">
    <g id="Group_227" data-name="Group 227" transform="translate(1.503)">
      <path id="Path_232" data-name="Path 232" d="M56.137,205.992a71.447,71.447,0,0,0,48.906-21.763c34.592-35.529,33.927-102.494,33.737-109.9l-.007-69.834A4.5,4.5,0,0,0,134.263,0H65.037a4.5,4.5,0,0,0-4.511,4.494V73.461a4.5,4.5,0,0,0,4.511,4.494h35.379c0,5.759-.706,56.873-22.976,79.672A32.434,32.434,0,0,1,55.62,167.7a4.5,4.5,0,0,0-4.193,4.483V201.5a4.493,4.493,0,0,0,1.392,3.247A4.4,4.4,0,0,0,56.137,205.992Z" transform="translate(61.183)"/>
      <path id="Path_233" data-name="Path 233" d="M2.895,204.749a4.379,4.379,0,0,0,3.32,1.243,71.437,71.437,0,0,0,48.9-21.763C89.711,148.7,89.046,81.735,88.857,74.328l0-69.834A4.5,4.5,0,0,0,84.341,0H15.113A4.5,4.5,0,0,0,10.6,4.494V73.461a4.5,4.5,0,0,0,4.511,4.494H50.491c-.009,5.759-.708,56.873-22.974,79.672A32.434,32.434,0,0,1,5.7,167.7,4.5,4.5,0,0,0,1.5,172.186V201.5A4.486,4.486,0,0,0,2.895,204.749Z" transform="translate(-1.503)"/>
    </g>
  </g>
</svg>
