<svg xmlns="http://www.w3.org/2000/svg" viewBox="0 0 25.608 26.951">
  <g id="Icons_Repeat" data-name="Icons / Repeat" transform="translate(-712.264 -714.224)" style="isolation: isolate">
    <path id="Color" d="M731.526,740.781a1.347,1.347,0,0,1,0-1.905l1.742-1.743H717.1a4.8,4.8,0,0,1-4.838-4.756v-3.329a1.348,1.348,0,0,1,2.7,0v3.329a2.105,2.105,0,0,0,2.143,2.06h16.167l-1.742-1.741a1.347,1.347,0,0,1,1.905-1.905l4.044,4.043a1.347,1.347,0,0,1,0,1.905l-4.044,4.043a1.348,1.348,0,0,1-1.905,0Zm3.649-14.429v-3.33a2.106,2.106,0,0,0-2.143-2.06H716.865l1.742,1.742a1.347,1.347,0,1,1-1.905,1.905l-4.044-4.042a1.347,1.347,0,0,1,0-1.905l4.044-4.043a1.347,1.347,0,0,1,1.905,1.905l-1.742,1.742h16.167a4.8,4.8,0,0,1,4.839,4.756v3.33a1.348,1.348,0,0,1-2.7,0Z" fill="#001f40"/>
  </g>
</svg>
