<svg xmlns="http://www.w3.org/2000/svg" viewBox="0 0 17.455 16">
  <g id="Icons_Star" data-name="Icons / Star" transform="translate(-323.451 -584.855)" style="isolation: isolate">
    <path id="Color" d="M3.873,16a.879.879,0,0,1-.514-.163.826.826,0,0,1-.346-.825l.848-4.751L.265,6.9a.829.829,0,0,1-.223-.866.858.858,0,0,1,.7-.575l4.976-.7L7.945.43a.925.925,0,0,1,1.564,0l2.223,4.327,4.976.7a.868.868,0,0,1,.7.575.828.828,0,0,1-.223.866l-3.6,3.364.849,4.751a.827.827,0,0,1-.347.825.875.875,0,0,1-.514.162.905.905,0,0,1-.4-.1l-4.45-2.249L4.277,15.9A.9.9,0,0,1,3.873,16Zm4.854-4.141a.9.9,0,0,1,.4.1l3.29,1.663-.625-3.51a.825.825,0,0,1,.252-.75L14.7,6.88,11.03,6.364a.871.871,0,0,1-.656-.459L8.727,2.7,7.081,5.9a.869.869,0,0,1-.656.459L2.757,6.88,5.406,9.359a.826.826,0,0,1,.254.75l-.625,3.51,3.289-1.663A.888.888,0,0,1,8.727,11.859Z" transform="translate(323.451 584.855)" fill="#fdca40"/>
  </g>
</svg>
