<svg xmlns="http://www.w3.org/2000/svg" viewBox="0 0 17.456 16">
  <g id="Icons_Star" data-name="Icons / Star" transform="translate(-323.45 -584.855)" style="isolation: isolate">
    <path id="Color" d="M13.582,16a.9.9,0,0,1-.4-.1l-4.45-2.249L4.277,15.9a.892.892,0,0,1-.917-.067.831.831,0,0,1-.346-.825l.848-4.751L.266,6.9a.825.825,0,0,1-.223-.866.864.864,0,0,1,.7-.575l4.976-.7L7.946.43A.926.926,0,0,1,9.51.43l2.223,4.327,4.976.7a.864.864,0,0,1,.7.575.825.825,0,0,1-.223.866l-3.6,3.364.848,4.751a.831.831,0,0,1-.346.825.879.879,0,0,1-.514.162" transform="translate(323.45 584.855)" fill="#fdca40"/>
  </g>
</svg>
