<svg xmlns="http://www.w3.org/2000/svg" viewBox="0 0 24.259 28.299">
  <g id="Icons_Timer" data-name="Icons / Timer" transform="translate(-132.075 -979.7)" style="isolation: isolate">
    <path id="Color" d="M144.205,1008a12.126,12.126,0,0,1-1.332-24.179.212.212,0,0,0-.008-.033.15.15,0,0,1-.008-.044V982.4h-1.348a1.348,1.348,0,0,1,0-2.7H146.9a1.348,1.348,0,1,1,0,2.7h-1.348v1.347a.15.15,0,0,1-.008.043.192.192,0,0,0-.008.035A12.126,12.126,0,0,1,144.205,1008Zm0-21.225a9.1,9.1,0,1,0,9.1,9.1A9.107,9.107,0,0,0,144.205,986.774Zm4.043,10.445h-4.043a1.35,1.35,0,0,1-1.348-1.348v-4.043a1.347,1.347,0,1,1,2.695,0v2.7h2.7a1.348,1.348,0,1,1,0,2.7Z" fill="#001f40"/>
  </g>
</svg>
