<svg id="Group_146" data-name="Group 146" xmlns="http://www.w3.org/2000/svg" viewBox="0 0 47.995 48">
  <path id="Path_135" data-name="Path 135" d="M433.517,425.482c0,16.48-7.518,23.226-24,23.226s-24-6.745-24-23.226,7.517-24.774,24-24.774,24,8.294,24,24.774" transform="translate(-385.522 -400.708)" fill="#fb8d9e"/>
  <path id="Path_136" data-name="Path 136" d="M396.1,424.89a15.221,15.221,0,0,0,15.325-15.325c0-.234,0-.463-.019-.7a11.022,11.022,0,0,0,2.69-2.783,10.929,10.929,0,0,1-3.092.847,5.422,5.422,0,0,0,2.367-2.98,10.736,10.736,0,0,1-3.42,1.305,5.391,5.391,0,0,0-9.318,3.686,5.3,5.3,0,0,0,.14,1.226,15.282,15.282,0,0,1-11.1-5.627,5.387,5.387,0,0,0,1.67,7.19,5.381,5.381,0,0,1-2.442-.674v.07a5.39,5.39,0,0,0,4.318,5.281,5.423,5.423,0,0,1-1.417.187,5.615,5.615,0,0,1-1.015-.1,5.4,5.4,0,0,0,5.033,3.742,10.8,10.8,0,0,1-6.689,2.306,11.59,11.59,0,0,1-1.282-.075,15.252,15.252,0,0,0,8.252,2.418" transform="translate(-376.971 -390.222)" fill="#fff"/>
</svg>
