<svg xmlns="http://www.w3.org/2000/svg" viewBox="0 0 26.953 24.257">
  <path id="Color" d="M150.943,739.828a4.047,4.047,0,0,1-4.043-4.043,3.937,3.937,0,0,1,.249-1.348h-8.585a3.917,3.917,0,0,1,.25,1.348,4.044,4.044,0,0,1-8.087,0,4,4,0,0,1,.3-1.506,2.692,2.692,0,0,1-1.644-2.536V718.266a2.58,2.58,0,0,1,2.442-2.695h15.33a2.582,2.582,0,0,1,2.444,2.695v3.4l6.232,4.986a1.341,1.341,0,0,1,.5,1.053v5.391a1.348,1.348,0,0,1-1.347,1.345h-.249a3.939,3.939,0,0,1,.249,1.348A4.048,4.048,0,0,1,150.943,739.828Zm0-5.391a1.348,1.348,0,1,0,1.348,1.348A1.349,1.349,0,0,0,150.943,734.437Zm-16.171,0a1.348,1.348,0,1,0,1.346,1.348A1.35,1.35,0,0,0,134.771,734.437Zm14.824-9.323h0v6.629h4.044v-3.4l-4.044-3.233Zm-17.5-6.847-.022,13.477h14.8l.022-13.477Z" transform="translate(-129.38 -715.571)" fill="#001f40"/>
</svg>
