<svg viewBox="0 0 95 81" class="prefix__w-24 prefix__h-24"><g data-name="Group 144"><path data-name="Path 125" d="M67.193 16.507a18.219 18.219 0 00-8.282-9.048 24.827 24.827 0 00-12.787-3.217 21.7 21.7 0 00-19.159 12.325 25.718 25.718 0 00-1.877 6.693 34.769 34.769 0 00-.447 6.487 20.392 20.392 0 004.027 12.1 26.835 26.835 0 0010.671 7.757 30.569 30.569 0 006.518 1.951 19.336 19.336 0 007.105.2c4.044-.785 7.028-3.863 9.088-7.262a33.1 33.1 0 003.507-8.061c3.122-6.103 4.098-13.496 1.636-19.925zm-9.631 32.035a10.7 10.7 0 01-5.348 2.436 19.977 19.977 0 01-6.834-.415 30.271 30.271 0 01-11.772-5.184 21.826 21.826 0 01-4.6-4.386 16.843 16.843 0 01-2.75-5.545 28.445 28.445 0 01-.354-12.506 23.709 23.709 0 011.874-6.377 19.46 19.46 0 013.095-4.62 21.063 21.063 0 019.291-6.009c7.885-2.483 17.521-.192 23.1 6.033 2.816 3.142 3.933 7.237 4.074 11.386a25.109 25.109 0 01-.661 6.515 22.324 22.324 0 00-2.3-11.158 17.172 17.172 0 00-9.095-8.293 14.569 14.569 0 00-2.844-.764 14.039 14.039 0 00-3.025.014c-.173.007-.173.276 0 .267a13.532 13.532 0 013 .365 14.923 14.923 0 012.832.811 15.752 15.752 0 015.065 3.263 18.8 18.8 0 015.316 10.964 25.054 25.054 0 01-.513 9.221c-.028.063-.052.129-.08.192-3.226 7.117-10.109 13.8-18.362 13.771a20.726 20.726 0 01-19.082-13.157 18.816 18.816 0 01-1.176-6.1 21.227 21.227 0 011.075-6.787 23.377 23.377 0 015.826-9.931 15.18 15.18 0 014.573-3.039c.1-.042.026-.225-.077-.18a17.839 17.839 0 00-8.333 7.7 24.741 24.741 0 00-3.613 12.388 20.052 20.052 0 004.217 11.995 21.719 21.719 0 0010.109 7.082 18.352 18.352 0 0012.986-.124 24.01 24.01 0 009.851-7.886c.089-.117.171-.241.258-.361a21.924 21.924 0 01-5.723 8.419z" fill="#001f40"/><g data-name="Group 143" fill="#fb8d9e"><path data-name="Path 126" d="M68.209 34.244a4.937 4.937 0 00-4.96-.274 3.818 3.818 0 00-1.923 1.818 3.748 3.748 0 00-.087 2.514 6.091 6.091 0 00.274.754 2.849 2.849 0 00.293.717 4.478 4.478 0 004.348 1.921 4.336 4.336 0 003.739-3.078 4.157 4.157 0 00-1.684-4.372z"/><path data-name="Path 127" d="M31.145 14.016a4.943 4.943 0 00-4.962-.275 3.847 3.847 0 00-1.926 1.82 3.757 3.757 0 00-.087 2.511 6.331 6.331 0 00.274.754 2.952 2.952 0 00.293.719 4.48 4.48 0 004.348 1.921 4.34 4.34 0 003.739-3.078 4.16 4.16 0 00-1.679-4.372z"/><path data-name="Path 128" d="M34.679 41.939a3.435 3.435 0 00-3.446-.19 2.657 2.657 0 00-1.335 1.263 2.6 2.6 0 00-.061 1.745 4.155 4.155 0 00.19.525 1.926 1.926 0 00.2.5 3.11 3.11 0 003.02 1.335 3.018 3.018 0 002.6-2.139 2.891 2.891 0 00-1.168-3.039z"/><path data-name="Path 129" d="M45.347 8.01a3.429 3.429 0 00-3.446-.19 2.657 2.657 0 00-1.335 1.263 2.6 2.6 0 00-.061 1.745 4.155 4.155 0 00.19.525 1.926 1.926 0 00.2.5 3.114 3.114 0 003.02 1.335 3.017 3.017 0 002.6-2.141 2.889 2.889 0 00-1.168-3.037z"/><path data-name="Path 130" d="M72.846 29.106a1.915 1.915 0 00-1.923-.105 1.467 1.467 0 00-.745.705 1.442 1.442 0 00-.035.972 2.733 2.733 0 00.105.293 1.174 1.174 0 00.115.279 1.737 1.737 0 001.687.745 1.682 1.682 0 001.45-1.192 1.618 1.618 0 00-.654-1.697z"/><path data-name="Path 131" d="M53.217 46.735a1.916 1.916 0 00-1.923-.105 1.481 1.481 0 00-.747.705 1.45 1.45 0 00-.033.975 2.416 2.416 0 00.106.291 1.154 1.154 0 00.115.279 1.733 1.733 0 001.684.745 1.676 1.676 0 001.45-1.192 1.613 1.613 0 00-.652-1.698z"/><path data-name="Path 132" d="M26.209 42.739a1.526 1.526 0 00-1.532-.087 1.189 1.189 0 00-.6.565 1.159 1.159 0 00-.026.775 1.733 1.733 0 00.084.234.875.875 0 00.091.223 1.389 1.389 0 001.345.6 1.348 1.348 0 001.157-.953 1.282 1.282 0 00-.519-1.357z"/><path data-name="Path 133" d="M61.891 13.862a1.525 1.525 0 00-1.535-.084 1.171 1.171 0 00-.6.562 1.146 1.146 0 00-.028.775 1.719 1.719 0 00.084.234.84.84 0 00.091.223 1.388 1.388 0 001.345.6 1.345 1.345 0 001.157-.953 1.287 1.287 0 00-.514-1.357z"/><path data-name="Path 134" d="M51.269.251a1.524 1.524 0 00-1.534-.084 1.18 1.18 0 00-.6.562 1.166 1.166 0 00-.026.778 1.865 1.865 0 00.084.232.838.838 0 00.091.223 1.386 1.386 0 001.345.6 1.345 1.345 0 001.157-.954 1.289 1.289 0 00-.517-1.357z"/></g></g><g data-name="Group 145" transform="translate(-109 -30)"><text transform="translate(154 105)" fill="#001f40" font-size="24" font-family="Montserrat-Bold, Montserrat" font-weight="700"><tspan x="-44.496" y="0">Beauty</tspan></text><circle data-name="Ellipse 12" cx="3" cy="3" r="3" transform="translate(198 99)" fill="#fb8d9e"/></g></svg>