<svg xmlns="http://www.w3.org/2000/svg" viewBox="0 0 19 24">
  <g id="natural-product" transform="translate(-9.183 -1.566)">
    <path id="Path_12" data-name="Path 12" d="M275.856,43.537,271.633,40.3a1.057,1.057,0,0,0-1.266,0l-4.223,3.236a12.022,12.022,0,0,0,0,18.984,7.926,7.926,0,0,0,3.8,1.569V58.854l-3.906-3.991a1.059,1.059,0,0,1,0-1.51,1,1,0,0,1,1.478,0l2.428,2.466v-2.8l-1.9-2.582a1.089,1.089,0,0,1,.211-1.51,1.035,1.035,0,0,1,1.477.216l.212.288v-1.8a1.056,1.056,0,1,1,2.111,0v1.8l.211-.288a1.055,1.055,0,0,1,1.478-.216,1.089,1.089,0,0,1,.211,1.51l-1.9,2.582v2.8l2.427-2.466a1.006,1.006,0,0,1,1.478,0,1.059,1.059,0,0,1,0,1.51l-3.906,3.991v5.236a7.926,7.926,0,0,0,3.8-1.569,12.022,12.022,0,0,0,0-18.984Zm0,0" transform="translate(-252.317 -38.525)" fill="#001f40"/>
  </g>
</svg>
